<?xml version="1.0" encoding="utf-8"?>
<!-- Generator: Adobe Illustrator 28.2.0, SVG Export Plug-In . SVG Version: 6.00 Build 0)  -->
<svg version="1.1" id="Capa_1" xmlns="http://www.w3.org/2000/svg" xmlns:xlink="http://www.w3.org/1999/xlink" x="0px" y="0px"
	 viewBox="0 0 1920 1888.35" style="enable-background:new 0 0 1920 1888.35;" xml:space="preserve">
<path d="M1198.89,372.28c-66.38,132.76-132.34,264.7-198.69,397.42c2.7,0.12,4.45,0.26,6.2,0.27c49,0.01,98-0.04,147,0.1
	c4.07,0.01,6.09-1.26,7.93-4.94c64.5-129.28,129.16-258.48,193.67-387.75c1.88-3.77,3.85-5.22,8.2-5.21
	c49.33,0.18,98.67,0.12,148,0.12c1.76,0,3.53,0,5.94,0c-0.8,1.72-1.24,2.74-1.74,3.75c-12.05,24.11-24.17,48.19-36.08,72.37
	c-1.44,2.92-3.19,3.64-6.18,3.62c-23.33-0.1-46.67,0.02-70-0.13c-3.77-0.02-5.86,0.93-7.66,4.54
	c-104.4,209.07-208.93,418.08-313.43,627.1c-0.72,1.44-1.31,2.95-2.19,4.94c26.48,0,52.39,0,78.85,0c-0.77,1.86-1.25,3.24-1.89,4.53
	c-11.9,23.82-23.85,47.63-35.71,71.47c-1.18,2.37-2.25,3.97-5.44,3.96c-51.17-0.12-102.34-0.09-153.5-0.1
	c-0.49,0-0.99-0.11-2.39-0.26c52.93-105.87,105.7-211.43,158.86-317.76c-2.51-0.13-4.24-0.3-5.97-0.3
	c-49.17-0.01-98.34,0.04-147.5-0.1c-3.94-0.01-5.8,1.29-7.54,4.77c-64.51,129.26-129.13,258.46-193.73,387.67
	c-0.72,1.44-1.34,2.94-2.36,5.18c2.54,0,4.46,0,6.38,0c181.34,0,362.68-0.02,544.02,0.13c4.75,0,6.93-1.61,8.92-5.66
	c11.5-23.45,23.31-46.76,34.91-70.16c1.22-2.45,2.39-3.9,5.5-3.89c24.33,0.13,48.67,0.08,73,0.09c0.8,0,1.59,0.14,2.92,0.27
	c-0.6,1.5-0.97,2.69-1.52,3.8c-25.28,50.61-50.59,101.2-75.8,151.84c-1.39,2.78-3.02,3.67-6.11,3.67
	c-262.67-0.08-525.35-0.07-788.02-0.07c-0.99,0-1.99,0-3.63,0c0.7-1.65,1.17-2.96,1.78-4.19c11.97-23.97,24.03-47.9,35.86-71.94
	c1.49-3.03,3.16-3.97,6.45-3.95c23.5,0.15,47-0.01,70.5,0.17c3.56,0.03,5.2-1.21,6.74-4.29c64.6-129.4,129.29-258.75,193.97-388.11
	c0.71-1.43,1.33-2.9,2.4-5.22c-2.86,0-4.8,0-6.75,0c-48.67,0-97.34,0.05-146-0.1c-4.22-0.01-6.42,1.17-8.36,5.06
	c-51.16,102.64-102.5,205.19-153.68,307.81c-2.01,4.02-4.16,5.73-8.94,5.71c-49-0.22-98-0.13-147-0.13c-1.83,0-3.65,0-6.19,0
	c0.7-1.72,1.14-3.06,1.77-4.31c11.96-23.97,23.99-47.9,35.84-71.93c1.39-2.82,3-3.7,6.07-3.68c23.67,0.13,47.33,0,71,0.15
	c3.29,0.02,4.98-0.92,6.48-3.91c104.58-209.35,209.25-418.66,313.9-627.99c0.65-1.3,1.13-2.69,1.96-4.69c-26.46,0-52.36,0-78.94,0
	c0.86-1.99,1.36-3.32,1.99-4.58c11.89-23.82,23.83-47.61,35.66-71.46c1.22-2.46,2.48-3.75,5.55-3.75
	c50.83,0.11,101.67,0.08,152.5,0.09c0.82,0,1.64,0.1,3.36,0.22c-66.23,132.48-132.25,264.53-198.71,397.47c2.83,0,4.62,0,6.4,0
	c49,0,98-0.06,147,0.1c4.15,0.01,6.1-1.41,7.9-5.02c64.47-129.18,129.06-258.3,193.52-387.49c1.97-3.94,4.06-5.48,8.62-5.42
	c22.66,0.28,45.33,0.13,68,0.13C1194.49,372.28,1196.26,372.28,1198.89,372.28z"/>
<g>
	<path d="M403.84,1493.72v-70.71h16.46v57.39h53.05v13.31H403.84z"/>
	<path d="M511.47,1423.01v57.39h46.89v-57.39h16.39v53.98c0,6.47-1.2,10.87-3.61,13.21c-2.41,2.34-7.05,3.51-13.91,3.51h-44.69
		c-6.82,0-11.45-1.17-13.88-3.51c-2.43-2.34-3.65-6.75-3.65-13.21v-53.98H511.47z"/>
	<path d="M610.94,1493.72v-70.71h16.46v70.71H610.94z"/>
	<path d="M724.8,1435.39h-46.29v15.19h44.08c6.91,0,11.58,1.18,14.01,3.54c2.43,2.36,3.65,6.76,3.65,13.18v9.7
		c0,6.42-1.21,10.82-3.65,13.18c-2.43,2.36-7.1,3.54-14.01,3.54h-43.68c-6.91,0-11.58-1.18-14.01-3.54
		c-2.43-2.36-3.65-6.76-3.65-13.18v-1.94l14.52-3.01v8.36h49.97v-16.12h-44.08c-6.87,0-11.51-1.18-13.91-3.54
		c-2.41-2.36-3.61-6.76-3.61-13.18v-7.83c0-6.42,1.2-10.81,3.61-13.18c2.41-2.36,7.05-3.54,13.91-3.54h40.14
		c6.64,0,11.23,1.14,13.75,3.41s3.78,6.31,3.78,12.11v1.47l-14.52,3.41V1435.39z"/>
	<path d="M827.41,1493.72v-70.71h16.46v27.43h51.38v-27.43h16.59v70.71h-16.59v-30.44h-51.38v30.44H827.41z"/>
	<path d="M947.96,1493.72v-70.71h72.38v12.04h-55.92v15.79h32.64v12.04h-32.64v17.53h56.59v13.31H947.96z"/>
	<path d="M1051.38,1493.72v-70.71h60.47c5.62,0,9.69,1.08,12.21,3.24s3.78,5.65,3.78,10.47v16.59c0,4.77-1.26,8.25-3.78,10.44
		c-2.52,2.19-6.59,3.28-12.21,3.28h-9.23l32.64,26.69h-23.61l-28.5-26.69h-15.59v26.69H1051.38z M1104.56,1435.25h-36.99v19.67
		h36.99c2.85,0,4.81-0.41,5.85-1.24s1.57-2.29,1.57-4.38v-8.5c0-2.05-0.52-3.49-1.57-4.31
		C1109.36,1435.66,1107.41,1435.25,1104.56,1435.25z"/>
	<path d="M1161.22,1493.72v-70.71h72.38v12.04h-55.92v15.79h32.64v12.04h-32.64v17.53h56.59v13.31H1161.22z"/>
	<path d="M1264.64,1493.72v-70.71h45.49c12.98,0,22.96,3.03,29.94,9.1c6.98,6.07,10.47,14.67,10.47,25.82
		c0,6.6-1.36,12.54-4.08,17.83c-2.72,5.28-6.55,9.44-11.51,12.48c-3.08,1.92-6.9,3.31-11.47,4.18c-4.57,0.87-10.43,1.3-17.56,1.3
		H1264.64z M1281.09,1480.41h21.27c11.33,0,19.35-1.76,24.08-5.28c4.73-3.52,7.09-9.34,7.09-17.46c0-7.22-1.96-12.7-5.89-16.42
		c-3.92-3.72-9.72-5.59-17.39-5.59h-29.17V1480.41z"/>
	<path d="M1380.7,1493.72v-70.71h16.46v70.71H1380.7z"/>
	<path d="M1419.77,1493.72l40-70.71h15.85l40.54,70.71h-18.46l-8.5-15.45h-44.82l-8.23,15.45H1419.77z M1451.41,1465.49h30.97
		l-15.25-28.76L1451.41,1465.49z"/>
</g>
</svg>
